#!OML:ASF E:\Mandelcareful walks\Project 1\Capture day 1\Session 1\Subject1.ASF
:FULLY-SPECIFIED
:DEGREES
568
root -8.3449 14.1001 -0.830984 -273.586 78.4272 -292.778
lowerback 31.09 3.05306 -1.65917
upperback 5.85162 3.60594 -2.40348
thorax -10.3468 1.90362 -3.22148
lowerneck -23.9268 -5.82577 -8.5686
upperneck 8.25843 -5.6564 4.15636
head 6.68221 -2.6146 2.0148
rclavicle -3.65764e-014 2.22639e-014
rhumerus -33.1852 4.05437 -72.5996
rradius 52.7748
rwrist -11.6151
rhand -8.636 -28.4313
rfingers 7.12502
rthumb 17.2968 -57.6816
lclavicle -3.65764e-014 2.22639e-014
lhumerus 35.8191 3.85832 38.2773
lradius 133.098
lwrist -17.3447
lhand -54.8763 -64.8539
lfingers 7.12502
lthumb -27.2619 -36.8043
rfemur -65.7876 -27.6676 7.54746
rtibia 77.1618
rfoot -24.4467 -18.3103
rtoes -12.0783
lfemur -57.1898 9.39939 -16.6572
ltibia 67.066
lfoot -23.1929 -4.17502
ltoes -21.7185
569
root -8.34393 14.1049 -0.845251 -276.469 78.3116 -295.759
lowerback 31.4879 2.91375 -1.71309
upperback 5.3373 3.39468 -2.3938
thorax -10.3474 1.82674 -2.91177
lowerneck -24.1814 -5.35823 -7.90159
upperneck 8.32251 -5.02765 2.97081
head 6.65131 -2.39351 1.59837
rclavicle -2.22639e-014 3.18055e-014
rhumerus -32.8824 4.33858 -72.7179
rradius 53.8465
rwrist -12.3774
rhand -8.64428 -28.8192
rfingers 7.12502
rthumb 17.2888 -58.0702
lclavicle -2.22639e-014 3.18055e-014
lhumerus 33.4836 1.98671 38.3795
lradius 133.028
lwrist -16.3982
lhand -54.8596 -62.7068
lfingers 7.12502
lthumb -27.2459 -34.6548
rfemur -66.0627 -27.3815 7.76334
rtibia 77.0171
rfoot -24.1823 -18.2099
rtoes -12.2453
lfemur -57.147 9.76944 -16.6587
ltibia 67.1813
lfoot -23.3715 -3.97088
ltoes -21.6105
570
root -8.34475 14.101 -0.857449 -279.039 78.1548 -298.614
lowerback 31.5783 2.76414 -1.72647
upperback 5.15765 3.18666 -2.28066
thorax -10.5971 1.72 -2.71911
lowerneck -24.466 -4.86689 -7.27967
upperneck 8.44507 -4.35283 1.78266
head 6.657 -2.15396 1.19245
rclavicle 2.38542e-014 7.31528e-014
rhumerus -32.7984 4.59603 -72.7639
rradius 55.2352
rwrist -13.1643
rhand -9.0697 -28.5099
rfingers 7.12502
rthumb 16.8793 -57.7964
lclavicle 2.38542e-014 7.31528e-014
lhumerus 30.7646 -0.343528 38.5397
lradius 132.977
lwrist -15.3902
lhand -54.8642 -60.7221
lfingers 7.12502
lthumb -27.2503 -32.6707
rfemur -66.6189 -27.1241 8.02924
rtibia 76.9514
rfoot -24.0204 -17.9073
rtoes -11.9957
lfemur -57.3902 10.1831 -16.7243
ltibia 67.3307
lfoot -23.5309 -3.65348
ltoes -22.1299
571
root -8.34811 14.0933 -0.864807 -282.078 77.857 -302.074
lowerback 31.6172 2.69453 -1.96713
upperback 4.87672 3.00384 -2.09329
thorax -10.949 1.62817 -2.33522
lowerneck -24.6224 -4.3532 -7.01771
upperneck 8.54614 -3.58943 0.873557
head 6.65958 -1.86058 0.947205
rclavicle 4.92986e-014 7.95139e-015
rhumerus -32.9435 5.13631 -72.7214
rradius 56.9965
rwrist -14.0379
rhand -9.71107 -28.0842
rfingers 7.12502
rthumb 16.2619 -57.4222
lclavicle 4.92986e-014 7.95139e-015
lhumerus 27.6181 -3.21504 38.787
lradius 132.835
lwrist -14.6923
lhand -54.9192 -55.9403
lfingers 7.12502
lthumb -27.3029 -27.8972
rfemur -67.4424 -26.7 8.30395
rtibia 76.9016
rfoot -23.8433 -17.6152
rtoes -11.6967
lfemur -57.758 10.7709 -16.8451
ltibia 67.4328
lfoot -23.6204 -3.45609
ltoes -22.2176
572
root -8.34344 14.1007 -0.871573 -284.825 77.6091 -304.99
lowerback 31.8315 2.51577 -2.20848
upperback 4.71118 2.70812 -1.77406
thorax -11.2495 1.49427 -1.76894
lowerneck -24.9218 -3.7129 -6.77736
upperneck 8.66651 -2.60918 -0.187877
head 6.6926 -1.47769 0.680178
rclavicle -2.94201e-014 -2.70347e-014
rhumerus -32.8195 5.9411 -72.5647
rradius 58.7142
rwrist -14.7529
rhand -10.074 -27.952
rfingers 7.12502
rthumb 15.9124 -57.3183
lclavicle -2.94201e-014 -2.70347e-014
lhumerus 23.9793 -6.04543 39.1153
lradius 132.881
lwrist -13.5771
lhand -53.8865 -49.0526
lfingers 7.12502
lthumb -26.3147 -20.858
rfemur -67.8146 -26.4282 8.57125
rtibia 76.7546
rfoot -23.6218 -17.3835
rtoes -12.0299
lfemur -57.7243 11.188 -16.8251
ltibia 67.4379
lfoot -23.7608 -3.33291
ltoes -21.8653
573
root -8.32616 14.1246 -0.878263 -287.282 77.3687 -307.284
lowerback 32.2522 2.25307 -2.35557
upperback 4.5677 2.33639 -1.47262
thorax -11.6019 1.32786 -1.24627
lowerneck -24.5147 -2.89522 -6.24858
upperneck 8.47613 -1.51111 -1.53347
head 6.52455 -1.04692 0.298106
rclavicle 1.82882e-014 -3.49861e-014
rhumerus -32.6847 6.70603 -72.4695
rradius 60.1742
rwrist -15.2256
rhand -10.3431 -27.6746
rfingers 7.12502
rthumb 15.6533 -57.0613
lclavicle 1.82882e-014 -3.49861e-014
lhumerus 20.1415 -9.0127 39.5428
lradius 132.978
lwrist -12.1205
lhand -51.5966 -43.004
lfingers 7.12502
lthumb -24.1208 -14.5004
rfemur -67.5622 -26.3201 8.65451
rtibia 76.5063
rfoot -23.4969 -17.0594
rtoes -11.7018
lfemur -57.1746 11.4452 -16.7745
ltibia 67.3156
lfoot -23.9477 -3.15648
ltoes -21.6284
574
root -8.32675 14.127 -0.873866 -287.568 77.2461 -307.72
lowerback 32.6389 1.78113 -2.17295
upperback 4.30235 1.77483 -1.41809
thorax -12.0587 1.061 -1.08642
lowerneck -24.7293 -2.17999 -5.70485
upperneck 8.67836 -0.553541 -2.50516
head 6.60408 -0.661138 0.00937531
rclavicle 3.02153e-014 -1.03368e-014
rhumerus -32.5834 7.1028 -72.7971
rradius 61.2964
rwrist -15.4995
rhand -11.7417 -26.0505
rfingers 7.12502
rthumb 14.3059 -55.5377
lclavicle 3.02153e-014 -1.03368e-014
lhumerus 17.0982 -12.4606 40.0494
lradius 132.38
lwrist -10.6903
lhand -48.0823 -37.8034
lfingers 7.12502
lthumb -20.7475 -8.89255
rfemur -67.7997 -26.4926 8.79465
rtibia 76.4721
rfoot -23.4665 -16.7749
rtoes -8.95485
lfemur -57.266 11.5135 -16.8305
ltibia 67.2302
lfoot -23.9164 -2.99831
ltoes -22.0655
